<?xml version="1.0" encoding="UTF-8" standalone="no"?>
<!-- Created with Inkscape (http://www.inkscape.org/) -->

<svg
   width="512"
   height="512"
   viewBox="0 0 512 512"
   version="1.1"
   id="svg1"
   inkscape:version="1.4.2 (ebf0e940d0, 2025-05-08)"
   sodipodi:docname="diascope.svg"
   inkscape:export-filename="diascope.png"
   inkscape:export-xdpi="96"
   inkscape:export-ydpi="96"
   xmlns:inkscape="http://www.inkscape.org/namespaces/inkscape"
   xmlns:sodipodi="http://sodipodi.sourceforge.net/DTD/sodipodi-0.dtd"
   xmlns:xlink="http://www.w3.org/1999/xlink"
   xmlns="http://www.w3.org/2000/svg"
   xmlns:svg="http://www.w3.org/2000/svg">
  <sodipodi:namedview
     id="namedview1"
     pagecolor="#ffffff"
     bordercolor="#999999"
     borderopacity="1"
     inkscape:showpageshadow="0"
     inkscape:pageopacity="0"
     inkscape:pagecheckerboard="0"
     inkscape:deskcolor="#d1d1d1"
     inkscape:document-units="px"
     showgrid="true"
     inkscape:zoom="1.6425781"
     inkscape:cx="256"
     inkscape:cy="256"
     inkscape:window-width="1920"
     inkscape:window-height="1126"
     inkscape:window-x="0"
     inkscape:window-y="0"
     inkscape:window-maximized="1"
     inkscape:current-layer="layer1">
    <inkscape:grid
       id="grid1"
       units="px"
       originx="0"
       originy="0"
       spacingx="8"
       spacingy="8"
       empcolor="#3f3fff"
       empopacity="0.25098039"
       color="#3f3fff"
       opacity="0.1254902"
       empspacing="4"
       enabled="true"
       visible="true"
       dotted="false" />
  </sodipodi:namedview>
  <defs
     id="defs1">
    <linearGradient
       id="linearGradient5"
       inkscape:collect="always">
      <stop
         style="stop-color:#c0c0c0;stop-opacity:1;"
         offset="0"
         id="stop5" />
      <stop
         style="stop-color:#caffff;stop-opacity:1;"
         offset="1"
         id="stop6" />
    </linearGradient>
    <linearGradient
       inkscape:collect="always"
       xlink:href="#linearGradient5"
       id="linearGradient6"
       x1="31.5"
       y1="256"
       x2="480.5"
       y2="256"
       gradientUnits="userSpaceOnUse" />
  </defs>
  <g
     inkscape:label="Layer 1"
     inkscape:groupmode="layer"
     id="layer1">
    <path
       d="M 32,32 V 480 H 480 V 32 Z m 32,32 h 64 L 256,256 96,448 H 64 Z m 128,0 H 448 V 288 L 320,248 Z m 96,224 160,64 v 96 H 160 Z"
       style="fill:url(#linearGradient6);stroke:#bababa;stroke-width:1px;stroke-opacity:1"
       id="path5"
       sodipodi:nodetypes="ccccccccccccccccccccc" />
    <path
       style="fill:#aaaaff;fill-rule:evenodd;stroke:#bababa;stroke-width:1.002;stroke-linecap:round;stroke-opacity:1;paint-order:stroke fill markers"
       d="M 64.837099,256 V 64.837099 l 31.50535,0.0177 31.505351,0.0177 63.54301,95.372601 c 55.36791,83.10248 63.45166,95.51891 62.83287,96.50974 -0.39058,0.62543 -36.19957,43.72309 -79.57552,95.7726 L 95.782779,447.1629 h -15.47284 -15.47284 z"
       id="path8" />
    <path
       style="fill:#aaaaff;fill-rule:evenodd;stroke:#bababa;stroke-width:1.002;stroke-linecap:round;stroke-opacity:1;paint-order:stroke fill markers"
       d="m 162.36907,446.0975 c 0.64145,-0.74151 124.00882,-155.03411 125.61078,-157.09838 0.077,-0.0992 35.92469,14.13219 79.66153,31.62538 l 79.52152,31.80579 v 47.3663 47.36631 H 304.30517 c -136.00022,0 -142.81349,-0.0511 -141.9361,-1.0654 z"
       id="path9" />
    <path
       style="fill:#55ff99;fill-rule:evenodd;stroke:#bababa;stroke-width:1.002;stroke-linecap:round;stroke-opacity:1;paint-order:stroke fill markers"
       d="M 383.8478,267.24028 C 336.71929,252.48741 320.57827,247.19891 319.81021,246.25878 318.148,244.22419 193.9025,65.518157 193.9025,65.161946 c 0,-0.178666 56.98359,-0.324847 126.6302,-0.324847 H 447.1629 V 175.94293 c 0,61.1082 -0.0685,111.08694 -0.1522,111.06386 -0.0837,-0.0231 -28.50701,-8.91801 -63.1629,-19.76651 z"
       id="path10" />
    <path
       style="fill:#d35f5f;fill-rule:evenodd;stroke:#bababa;stroke-width:1.002;stroke-linecap:round;stroke-opacity:1;paint-order:stroke fill markers"
       d="M 64.837099,256 V 64.837099 l 31.50535,0.0056 31.505351,0.0056 54.31353,81.725711 c 60.18193,90.55589 66.87267,100.71286 69.97231,106.22247 l 2.13648,3.7976 -8.96462,10.81358 c -4.93053,5.94747 -40.6048,48.82548 -79.27614,95.28445 L 95.717827,447.1629 H 80.277463 64.837099 Z"
       id="path11" />
    <path
       style="fill:#55d400;fill-rule:evenodd;stroke:#bababa;stroke-width:1.002;stroke-linecap:round;stroke-opacity:1;paint-order:stroke fill markers"
       d="m 424.94174,279.94713 c -11.04971,-3.50344 -34.06231,-10.7585 -51.13912,-16.12233 -17.07682,-5.36384 -36.11051,-11.45154 -42.2971,-13.52823 l -11.24834,-3.7758 -5.13423,-7.28417 C 307.84581,228.91219 230.17569,117.24436 210.75798,89.189061 L 194.53547,65.750297 214.15715,65.37723 c 10.79193,-0.205187 67.6331,-0.410656 126.31372,-0.456599 L 447.1629,64.837099 V 160.0154 c 0,99.3921 -0.31444,126.46991 -1.46741,126.36309 -0.36486,-0.0338 -9.70405,-2.92791 -20.75375,-6.43136 z"
       id="path12" />
  </g>
</svg>
